{"title":"Pawn.Sacrifice.2014.WEBRip.480p.x264.AAC-VYTO [P2PDL]","uid":12951222,"size":428811259,"categoryP":"video","categoryS":"movies","magnet":"?xt=urn:btih:91b0b08c3b34968998ad79fcb317be1ad853676d&amp;dn=Pawn.Sacrifice.2014.WEBRip.480p.x264.AAC-VYTO+%5BP2PDL%5D&amp;tr=udp%3A%2F%2Ftracker.leechers-paradise.org%3A6969&amp;tr=udp%3A%2F%2Fzer0day.ch%3A1337&amp;tr=udp%3A%2F%2Fopen.demonii.com%3A1337&amp;tr=udp%3A%2F%2Ftracker.coppersurfer.tk%3A6969&amp;tr=udp%3A%2F%2Fexodus.desync.com%3A6969","seeders":0,"leechers":1,"uploader":"VYTOP2PDL","files":7,"time":1449730311,"description":"____    ____ ____    ____ .___________.  ______   \r\n     /   /      /   / |           | /  __    \r\n    /   /      /   /  `---|  |----`|  |  |  | \r\n        /     _    _/       |  |     |  |  |  | \r\n       /        |  |         |  |     |  `--'  | \r\n    __/         |__|         |__|      ______/  \r\n                                                  \r\nPresenting Small Encodes with quality for years!\r\n                                                                                                   \r\n                                                                                                   \r\n\r\nPawn.Sacrifice.2014.WEBRip.480p.x264.AAC-VYTO\r\n\r\n\r\nGenre: Biography, Drama    \nhttp://www.imdb.com/title/tt1596345/\r\n\r\n\r\nGeneral\r\nFormat                         : MPEG-4\r\nFile size                      : 400 MiB\r\nDuration                       : 1h 55mn\r\nOverall bit rate               : 483 Kbps\r\n\r\nVideo\r\nFormat                         : AVC\r\nBit rate                       : 450 Kbps\r\nWidth                          : 720 pixels\r\nHeight                         : 304 pixels\r\nDisplay aspect ratio           : 2.35:1\r\nFrame rate mode                : Constant\r\nFrame rate                     : 23.976 fps\r\nBit depth                      : 8 bits\r\nStream size                    : 371 MiB (93%)\r\nWriting library                : x264\r\n\r\nAudio\r\nFormat                         : AAC\r\nBit rate mode                  : Variable\r\nBit rate                       : 31.9 Kbps\r\nChannel(s)                     : 2 channels \r\nChannel positions              : Front: L R\r\nSampling rate                  : 48.0 KHz \r\nStream size                    : 26.4 MiB (7%)\r\nLanguage                       : English\r\n\r\nSubtitle                       : Yes (English)\r\n\r\nScreen Shots: (Click to view)\r\n \nhttp://ititli.com/5X \nhttp://ititli.com/5q \nhttp://ititli.com/5r \nhttp://ititli.com/51 \nhttp://ititli.com/5T \nhttp://ititli.com/5W \nhttp://ititli.com/5g \nhttp://ititli.com/5n \nhttp://ititli.com/5w\r\n\r\n----------------------------------------------------------------------------------------------------\r\n\r\n\r\nEncoder Notes: Looking For Early Access To Anything You Can Provide WEBDL, DVDScr, DVDR, BluRay,\r\nDirect Audio, Music Releases and Seedboxes. If You Got anything to offer please contact us.\r\n\r\nSupport us by donating BC - 1FgwdzPsd1y25Gea8wP1qni35uGCtmkRCD\r\n\r\nSend some love!\r\nFind us and join us!","torrent":{"xt":"urn:btih:91b0b08c3b34968998ad79fcb317be1ad853676d","amp;dn":"Pawn.Sacrifice.2014.WEBRip.480p.x264.AAC-VYTO+%5BP2PDL%5D","amp;tr":["udp%3A%2F%2Ftracker.leechers-paradise.org%3A6969","udp%3A%2F%2Fzer0day.ch%3A1337","udp%3A%2F%2Fopen.demonii.com%3A1337","udp%3A%2F%2Ftracker.coppersurfer.tk%3A6969","udp%3A%2F%2Fexodus.desync.com%3A6969"],"infoHash":"91b0b08c3b34968998ad79fcb317be1ad853676d","infoHashBuffer":{"type":"Buffer","data":[145,176,176,140,59,52,150,137,152,173,121,252,179,23,190,26,216,83,103,109]},"announce":[],"urlList":[]}}